<svg width="40" height="40" viewBox="0 0 40 40" fill="none" xmlns="http://www.w3.org/2000/svg">
<path d="M7.03668 31.9633C7.80981 32.7375 8.7283 33.3514 9.73938 33.7695C10.7505 34.1877 11.8342 34.402 12.9284 34.4C14.0227 34.4019 15.1067 34.1876 16.1181 33.7695C17.1294 33.3513 18.0482 32.7375 18.8217 31.9633L23.535 27.2483L21.1784 24.8917L16.465 29.6067C15.5258 30.5417 14.2545 31.0666 12.9292 31.0666C11.6039 31.0666 10.3326 30.5417 9.39335 29.6067C8.45752 28.6679 7.93203 27.3964 7.93203 26.0708C7.93203 24.7453 8.45752 23.4738 9.39335 22.535L14.1084 17.8217L11.7517 15.465L7.03668 20.1783C5.47636 21.7424 4.6001 23.8615 4.6001 26.0708C4.6001 28.2801 5.47636 30.3992 7.03668 31.9633ZM32.9634 17.8217C34.5229 16.2571 35.3986 14.1382 35.3986 11.9292C35.3986 9.72012 34.5229 7.60118 32.9634 6.03665C31.3993 4.47633 29.2802 3.60007 27.0709 3.60007C24.8616 3.60007 22.7424 4.47633 21.1784 6.03665L16.465 10.7517L18.8217 13.1083L23.535 8.39332C24.4742 7.4583 25.7456 6.93337 27.0709 6.93337C28.3961 6.93337 29.6675 7.4583 30.6067 8.39332C31.5425 9.33211 32.068 10.6036 32.068 11.9292C32.068 13.2547 31.5425 14.5262 30.6067 15.465L25.8917 20.1783L28.2484 22.535L32.9634 17.8217Z" fill="#2192FF"/>
<path d="M14.1066 28.25L11.7483 25.8933L25.8933 11.75L28.25 14.1083L14.1066 28.25Z" fill="#2192FF"/>
</svg>
