<svg width="28" height="28" viewBox="0 0 32 32" fill="none" xmlns="http://www.w3.org/2000/svg">
<path d="M26.5479 4.4253C26.3625 4.30648 26.149 4.23873 25.929 4.22892C25.709 4.21912 25.4903 4.2676 25.2951 4.36946L4.41107 15.1128C4.19826 15.2235 4.02179 15.3931 3.90272 15.6013C3.78365 15.8095 3.72702 16.0477 3.73958 16.2872C3.75201 16.5266 3.83301 16.7574 3.97294 16.952C4.11287 17.1467 4.30582 17.297 4.5288 17.385L11.3916 20.1072L11.6879 28.5019L18.7995 23.0352L24.8375 25.4237C24.9962 25.4924 25.1683 25.5248 25.3411 25.5185C25.5707 25.5088 25.7932 25.4361 25.9841 25.3082C26.1524 25.198 26.2917 25.0488 26.39 24.8733C26.4883 24.6978 26.5428 24.5012 26.5489 24.3001L27.1368 5.51771C27.1422 5.30011 27.0907 5.08486 26.9875 4.89326C26.8842 4.70166 26.7326 4.54035 26.5479 4.4253ZM24.1071 22.4476L17.4218 19.7943L21.1085 11.9093L11.7393 17.5558L8.02221 16.0735L24.5697 7.55953L24.1071 22.4476Z" fill="#1ABCFE"/>
</svg>
