<svg width="28" height="28" viewBox="0 0 31 32" fill="none" xmlns="http://www.w3.org/2000/svg">
<path d="M6.57088 9.79981C8.08121 9.82189 9.32349 8.61542 9.34557 7.10508C9.36765 5.59474 8.16118 4.35247 6.65085 4.33039C5.14051 4.30831 3.89824 5.51478 3.87615 7.02511C3.85407 8.53545 5.06054 9.77772 6.57088 9.79981Z" fill="#1ABCFE"/>
<path d="M11.8576 11.9498L11.6358 27.1219L16.3465 27.1908L16.4562 19.6879C16.4852 17.7081 16.8857 15.7962 19.3404 15.8321C21.7614 15.8675 21.7583 18.1315 21.7326 19.89L21.6247 27.2692L26.3379 27.3382L26.4596 19.0178C26.5193 14.9307 25.6854 11.777 20.9084 11.7071C18.6149 11.6736 17.0591 12.9097 16.413 14.0916L16.3493 14.0907L16.3796 12.0159L11.8576 11.9498ZM4.18092 11.8376L8.89916 11.9066L8.67733 27.0787L3.95908 27.0097L4.18092 11.8376Z" fill="#1ABCFE"/>
</svg>
