<svg width="28" height="28" viewBox="0 0 31 31" fill="none" xmlns="http://www.w3.org/2000/svg">
<path d="M26.5886 6.88691C27.7198 8.25716 28.2799 9.85228 28.2715 11.6723C28.241 18.2684 24.4795 20.1848 20.9507 20.7372C21.402 21.5356 21.5115 22.4461 21.5073 23.3561L21.4857 28.0185C21.4831 28.5873 21.1403 28.9269 20.6853 28.9248C20.5653 28.9259 20.4463 28.903 20.3354 28.8573C20.2244 28.8117 20.1237 28.7443 20.0393 28.659C19.9548 28.5738 19.8883 28.4725 19.8437 28.3611C19.7991 28.2498 19.7773 28.1306 19.7795 28.0106L19.8011 23.3482C19.8632 22.8717 19.8145 22.3874 19.6588 21.9329C19.503 21.4784 19.2445 21.0659 18.9032 20.7277L19.4788 19.2516C23.0071 18.813 26.6524 17.6923 26.6808 11.5511C26.6876 10.0724 26.1252 8.70479 25.1067 7.56256L24.8835 6.65276C25.3211 5.56484 25.3664 4.35854 25.0118 3.24082C24.4437 3.35069 23.3052 3.57417 21.3664 4.93021L20.6821 5.03954C17.9988 4.34494 15.1844 4.3319 12.4947 5.00163L11.8115 4.88596C9.77231 3.62525 8.63641 3.27874 8.06641 3.2761C7.7199 4.41201 7.71411 5.66199 8.16311 6.68908L7.93265 7.59678C6.7899 8.729 6.21431 10.2051 6.20798 11.5701C6.18007 17.5975 9.58674 18.8646 13.3371 19.3369L13.7852 20.8178C13.0996 21.4971 12.7541 22.4055 12.8637 23.316L12.8415 28.0922C12.8427 28.2122 12.8197 28.3312 12.7741 28.4421C12.7284 28.5531 12.661 28.6538 12.5758 28.7382C12.4905 28.8227 12.3892 28.8892 12.2779 28.9338C12.1665 28.9784 12.0473 29.0002 11.9273 28.998C11.8074 28.9991 11.6884 28.9762 11.5774 28.9305C11.4665 28.8849 11.3658 28.8175 11.2813 28.7322C11.1969 28.647 11.1304 28.5457 11.0858 28.4343C11.0412 28.323 11.0193 28.2038 11.0216 28.0838L11.0337 25.4688C7.27753 26.2477 5.80775 24.3071 4.6771 22.8244C4.11152 22.1392 3.65916 21.5684 3.09094 21.452C2.97897 21.3377 2.63858 20.8812 2.75443 20.4267C2.87029 19.9722 3.32686 19.6331 3.78206 19.8627C4.91849 20.0955 5.59552 21.0086 6.27307 21.808C7.29174 23.1777 8.30969 24.4325 11.3828 23.7654L11.3849 23.3104C11.2766 22.3999 11.5071 21.491 11.9658 20.6968C8.55648 19.9985 4.58548 18.0464 4.6155 11.564C4.62392 9.74398 5.20004 8.15413 6.34385 6.79441C6.00997 5.2016 6.13162 3.49589 6.70669 2.13354L7.27754 1.68118C7.50556 1.56848 9.09963 1.23461 12.3864 3.29611C15.1149 2.62633 17.9665 2.63953 20.6888 3.33455C23.885 1.18808 25.5897 1.53598 25.8166 1.65203L26.3833 2.10966C26.9446 3.70478 27.051 5.29779 26.5886 6.88691Z" fill="#1ABCFE"/>
</svg>
