<svg width="40" height="40" viewBox="0 0 40 40" fill="none" xmlns="http://www.w3.org/2000/svg">
<path d="M20 27.2C16 27.2 12.8 24 12.8 20C12.8 16 16 12.8 20 12.8C24 12.8 27.2 16 27.2 20C27.2 24 24 27.2 20 27.2ZM20 14.4C16.88 14.4 14.4 16.88 14.4 20C14.4 23.12 16.88 25.6 20 25.6C23.12 25.6 25.6 23.12 25.6 20C25.6 16.88 23.12 14.4 20 14.4Z" fill="black"/>
<path d="M22.16 35.2H17.84L16.64 31.52C15.84 31.28 15.04 30.96 14.32 30.56L10.8 32.32L7.76005 29.28L9.52005 25.76C9.12005 25.04 8.80005 24.24 8.56005 23.44L4.80005 22.16V17.84L8.48005 16.64C8.72005 15.84 9.04005 15.04 9.44005 14.32L7.68005 10.8L10.72 7.75999L14.24 9.51999C14.96 9.11999 15.76 8.79999 16.5601 8.55999L17.84 4.79999H22.16L23.3601 8.47999C24.16 8.71999 24.96 9.03999 25.68 9.43999L29.2 7.67999L32.24 10.72L30.48 14.24C30.88 14.96 31.2 15.76 31.44 16.56L35.1201 17.76V22.08L31.44 23.28C31.2 24.08 30.88 24.88 30.48 25.6L32.24 29.12L29.2 32.16L25.68 30.4C24.96 30.8 24.16 31.12 23.3601 31.36L22.16 35.2ZM18.96 33.6H21.04L22.16 30.16L22.56 30.08C23.5201 29.84 24.4 29.44 25.2801 28.96L25.68 28.72L28.88 30.32L30.3201 28.88L28.7201 25.68L28.9601 25.28C29.4401 24.48 29.84 23.52 30.08 22.56L30.16 22.16L33.6 21.04V18.96L30.16 17.84L30.08 17.44C29.84 16.48 29.4401 15.6 28.9601 14.72L28.7201 14.32L30.3201 11.12L28.88 9.67999L25.68 11.28L25.2801 11.04C24.4 10.56 23.5201 10.16 22.56 9.91999L22.16 9.83999L21.04 6.39999H18.96L17.84 9.83999L17.44 9.91999C16.48 10.16 15.6 10.56 14.72 11.04L14.32 11.28L11.12 9.67999L9.68005 11.12L11.28 14.32L11.04 14.72C10.56 15.52 10.16 16.48 9.92005 17.44L9.84005 17.84L6.40005 18.96V21.04L9.84005 22.16L9.92005 22.56C10.16 23.52 10.56 24.4 11.04 25.28L11.28 25.68L9.68005 28.88L11.12 30.32L14.32 28.72L14.72 28.96C15.6 29.44 16.48 29.84 17.44 30.08L17.84 30.16L18.96 33.6Z" fill="black"/>
</svg>
