<svg width="40" height="40" viewBox="0 0 40 40" fill="none" xmlns="http://www.w3.org/2000/svg">
<path d="M6 9C6 8.20435 6.31607 7.44129 6.87868 6.87868C7.44129 6.31607 8.20435 6 9 6H15C15.2652 6 15.5196 5.89464 15.7071 5.70711C15.8946 5.51957 16 5.26522 16 5C16 4.73478 15.8946 4.48043 15.7071 4.29289C15.5196 4.10536 15.2652 4 15 4H9C7.67392 4 6.40215 4.52678 5.46447 5.46447C4.52678 6.40215 4 7.67392 4 9V15C4 15.2652 4.10536 15.5196 4.29289 15.7071C4.48043 15.8946 4.73478 16 5 16C5.26522 16 5.51957 15.8946 5.70711 15.7071C5.89464 15.5196 6 15.2652 6 15V9ZM6 31C6 31.7956 6.31607 32.5587 6.87868 33.1213C7.44129 33.6839 8.20435 34 9 34H15C15.2652 34 15.5196 34.1054 15.7071 34.2929C15.8946 34.4804 16 34.7348 16 35C16 35.2652 15.8946 35.5196 15.7071 35.7071C15.5196 35.8946 15.2652 36 15 36H9C7.67392 36 6.40215 35.4732 5.46447 34.5355C4.52678 33.5979 4 32.3261 4 31V25C4 24.7348 4.10536 24.4804 4.29289 24.2929C4.48043 24.1054 4.73478 24 5 24C5.26522 24 5.51957 24.1054 5.70711 24.2929C5.89464 24.4804 6 24.7348 6 25V31ZM31 6C31.7956 6 32.5587 6.31607 33.1213 6.87868C33.6839 7.44129 34 8.20435 34 9V15C34 15.2652 34.1054 15.5196 34.2929 15.7071C34.4804 15.8946 34.7348 16 35 16C35.2652 16 35.5196 15.8946 35.7071 15.7071C35.8946 15.5196 36 15.2652 36 15V9C36 7.67392 35.4732 6.40215 34.5355 5.46447C33.5979 4.52678 32.3261 4 31 4H25C24.7348 4 24.4804 4.10536 24.2929 4.29289C24.1054 4.48043 24 4.73478 24 5C24 5.26522 24.1054 5.51957 24.2929 5.70711C24.4804 5.89464 24.7348 6 25 6H31ZM34 31C34 31.7956 33.6839 32.5587 33.1213 33.1213C32.5587 33.6839 31.7956 34 31 34H25C24.7348 34 24.4804 34.1054 24.2929 34.2929C24.1054 34.4804 24 34.7348 24 35C24 35.2652 24.1054 35.5196 24.2929 35.7071C24.4804 35.8946 24.7348 36 25 36H31C32.3261 36 33.5979 35.4732 34.5355 34.5355C35.4732 33.5979 36 32.3261 36 31V25C36 24.7348 35.8946 24.4804 35.7071 24.2929C35.5196 24.1054 35.2652 24 35 24C34.7348 24 34.4804 24.1054 34.2929 24.2929C34.1054 24.4804 34 24.7348 34 25V31ZM14 23C14 21.4087 14.6321 19.8826 15.7574 18.7574C16.8826 17.6321 18.4087 17 20 17C21.5913 17 23.1174 17.6321 24.2426 18.7574C25.3679 19.8826 26 21.4087 26 23C26 24.5913 25.3679 26.1174 24.2426 27.2426C23.1174 28.3679 21.5913 29 20 29C18.4087 29 16.8826 28.3679 15.7574 27.2426C14.6321 26.1174 14 24.5913 14 23ZM20 19C18.9391 19 17.9217 19.4214 17.1716 20.1716C16.4214 20.9217 16 21.9391 16 23C16 24.0609 16.4214 25.0783 17.1716 25.8284C17.9217 26.5786 18.9391 27 20 27C21.0609 27 22.0783 26.5786 22.8284 25.8284C23.5786 25.0783 24 24.0609 24 23C24 21.9391 23.5786 20.9217 22.8284 20.1716C22.0783 19.4214 21.0609 19 20 19ZM9.896 19.446V19.448C9.77718 19.6854 9.56894 19.8658 9.31708 19.9496C9.06522 20.0335 8.79037 20.0138 8.553 19.895C8.31563 19.7762 8.13518 19.5679 8.05136 19.3161C7.96753 19.0642 7.98718 18.7894 8.106 18.552L9 19C8.70048 18.853 8.40246 18.703 8.106 18.55L8.108 18.548L8.112 18.54L8.122 18.52C8.17282 18.4212 8.22753 18.3245 8.286 18.23C8.44087 17.9715 8.60703 17.7199 8.784 17.476C9.38257 16.6522 10.076 15.9017 10.85 15.24C12.75 13.61 15.726 12 20 12C24.274 12 27.248 13.61 29.15 15.24C30.096 16.052 30.774 16.864 31.218 17.478C31.4587 17.8118 31.6791 18.1597 31.878 18.52L31.888 18.54L31.892 18.548L31.894 18.552L31 19L31.894 18.552C32.0111 18.7886 32.0299 19.0619 31.9463 19.3123C31.8627 19.5627 31.6835 19.7699 31.4478 19.8886C31.2121 20.0074 30.9389 20.0282 30.6879 19.9464C30.4369 19.8646 30.2285 19.6869 30.108 19.452V19.448L30.104 19.446L30.086 19.41C29.9367 19.1472 29.7731 18.8929 29.596 18.648C29.09 17.9524 28.504 17.3187 27.85 16.76C26.25 15.39 23.726 14 20 14C16.274 14 13.75 15.39 12.152 16.76C11.4974 17.3187 10.9107 17.9523 10.404 18.648C10.2269 18.8929 10.0633 19.1472 9.914 19.41L9.894 19.446H9.896Z" fill="black"/>
</svg>
