<svg width="381" height="421" viewBox="0 0 381 421" fill="none" xmlns="http://www.w3.org/2000/svg">
<path d="M135.5 0V182" stroke="#9CFF2E" stroke-miterlimit="10"/>
<path d="M157.4 10V182" stroke="#9CFF2E" stroke-width="1.6364" stroke-miterlimit="10"/>
<path d="M179.3 20V182" stroke="#9CFF2E" stroke-width="2.2727" stroke-miterlimit="10"/>
<path d="M201.2 29.9V182" stroke="#9CFF2E" stroke-width="2.9091" stroke-miterlimit="10"/>
<path d="M223.2 39.9V182" stroke="#9CFF2E" stroke-width="3.5455" stroke-miterlimit="10"/>
<path d="M245.1 49.9V182" stroke="#9CFF2E" stroke-width="4.1818" stroke-miterlimit="10"/>
<path d="M267 59.9V182" stroke="#9CFF2E" stroke-width="4.8182" stroke-miterlimit="10"/>
<path d="M288.9 69.9V182" stroke="#9CFF2E" stroke-width="5.4545" stroke-miterlimit="10"/>
<path d="M310.8 79.9V182" stroke="#9CFF2E" stroke-width="6.0909" stroke-miterlimit="10"/>
<path d="M332.7 89.9V182" stroke="#9CFF2E" stroke-width="6.7273" stroke-miterlimit="10"/>
<path d="M354.6 99.8V182" stroke="#9CFF2E" stroke-width="7.3636" stroke-miterlimit="10"/>
<path d="M376.5 109.8V182" stroke="#9CFF2E" stroke-width="8" stroke-miterlimit="10"/>
<path d="M276.7 420.8V199.8" stroke="#2192FF" stroke-miterlimit="10"/>
<path d="M251.9 408.8V199.8" stroke="#2192FF" stroke-width="1.6364" stroke-miterlimit="10"/>
<path d="M227.1 396.9V199.8" stroke="#2192FF" stroke-width="2.2727" stroke-miterlimit="10"/>
<path d="M202.3 384.9V199.8" stroke="#2192FF" stroke-width="2.9091" stroke-miterlimit="10"/>
<path d="M177.5 372.9V199.8" stroke="#2192FF" stroke-width="3.5455" stroke-miterlimit="10"/>
<path d="M152.7 360.9V199.8" stroke="#2192FF" stroke-width="4.1818" stroke-miterlimit="10"/>
<path d="M127.9 349V199.8" stroke="#2192FF" stroke-width="4.8182" stroke-miterlimit="10"/>
<path d="M103.2 337V199.8" stroke="#2192FF" stroke-width="5.4545" stroke-miterlimit="10"/>
<path d="M78.4 325V199.8" stroke="#2192FF" stroke-width="6.0909" stroke-miterlimit="10"/>
<path d="M53.6 313V199.8" stroke="#2192FF" stroke-width="6.7273" stroke-miterlimit="10"/>
<path d="M28.8 301V199.8" stroke="#2192FF" stroke-width="7.3636" stroke-miterlimit="10"/>
<path d="M4 289.1V199.8" stroke="#2192FF" stroke-width="8" stroke-miterlimit="10"/>
<path d="M99.5 82.8V310.3" stroke="#F7DF1E" stroke-miterlimit="10"/>
<path d="M124.8 94.6V315.5" stroke="#F7DF1E" stroke-width="1.7778" stroke-miterlimit="10"/>
<path d="M150 106.3V320.8" stroke="#F7DF1E" stroke-width="2.5556" stroke-miterlimit="10"/>
<path d="M175.2 118.1V326" stroke="#F7DF1E" stroke-width="3.3333" stroke-miterlimit="10"/>
<path d="M200.4 129.8V331.3" stroke="#F7DF1E" stroke-width="4.1111" stroke-miterlimit="10"/>
<path d="M225.6 141.6V336.5" stroke="#F7DF1E" stroke-width="4.8889" stroke-miterlimit="10"/>
<path d="M250.8 153.3V341.8" stroke="#F7DF1E" stroke-width="5.6667" stroke-miterlimit="10"/>
<path d="M276 165.1V347" stroke="#F7DF1E" stroke-width="6.4444" stroke-miterlimit="10"/>
<path d="M301.2 176.8V352.2" stroke="#F7DF1E" stroke-width="7.2222" stroke-miterlimit="10"/>
<path d="M326.5 188.6V357.5" stroke="#F7DF1E" stroke-width="8" stroke-miterlimit="10"/>
</svg>
