<svg  viewBox="0 0 288 204" fill="none" xmlns="http://www.w3.org/2000/svg">
<path d="M104.703 81C108.405 81 111.405 78.5376 111.405 75.5C111.405 72.4624 108.405 70 104.703 70C101.001 70 98 72.4624 98 75.5C98 78.5376 101.001 81 104.703 81Z" fill="#1ABCFE" fill-opacity="0.26"/>
<path d="M134.002 81C137.704 81 140.705 78.5376 140.705 75.5C140.705 72.4624 137.704 70 134.002 70C130.3 70 127.299 72.4624 127.299 75.5C127.299 78.5376 130.3 81 134.002 81Z" fill="#1ABCFE" fill-opacity="0.26"/>
<path d="M163.3 81C167.002 81 170.002 78.5376 170.002 75.5C170.002 72.4624 167.002 70 163.3 70C159.598 70 156.597 72.4624 156.597 75.5C156.597 78.5376 159.598 81 163.3 81Z" fill="#1ABCFE" fill-opacity="0.26"/>
<path d="M192.649 81C196.351 81 199.352 78.5376 199.352 75.5C199.352 72.4624 196.351 70 192.649 70C188.947 70 185.947 72.4624 185.947 75.5C185.947 78.5376 188.947 81 192.649 81Z" fill="#1ABCFE" fill-opacity="0.26"/>
<path d="M221.949 81C225.65 81 228.651 78.5376 228.651 75.5C228.651 72.4624 225.65 70 221.949 70C218.247 70 215.246 72.4624 215.246 75.5C215.246 78.5376 218.247 81 221.949 81Z" fill="#1ABCFE" fill-opacity="0.26"/>
<path d="M251.297 81C254.999 81 258 78.5376 258 75.5C258 72.4624 254.999 70 251.297 70C247.595 70 244.595 72.4624 244.595 75.5C244.595 78.5376 247.595 81 251.297 81Z" fill="#1ABCFE" fill-opacity="0.26"/>
<path d="M104.703 100.833C108.405 100.833 111.405 98.3708 111.405 95.3333C111.405 92.2957 108.405 89.8333 104.703 89.8333C101.001 89.8333 98 92.2957 98 95.3333C98 98.3708 101.001 100.833 104.703 100.833Z" fill="#1ABCFE" fill-opacity="0.26"/>
<path d="M134.002 100.833C137.704 100.833 140.705 98.3708 140.705 95.3333C140.705 92.2957 137.704 89.8333 134.002 89.8333C130.3 89.8333 127.299 92.2957 127.299 95.3333C127.299 98.3708 130.3 100.833 134.002 100.833Z" fill="#1ABCFE" fill-opacity="0.26"/>
<path d="M163.3 100.833C167.002 100.833 170.002 98.3708 170.002 95.3333C170.002 92.2957 167.002 89.8333 163.3 89.8333C159.598 89.8333 156.597 92.2957 156.597 95.3333C156.597 98.3708 159.598 100.833 163.3 100.833Z" fill="#1ABCFE" fill-opacity="0.26"/>
<path d="M192.649 100.833C196.351 100.833 199.352 98.3708 199.352 95.3333C199.352 92.2957 196.351 89.8333 192.649 89.8333C188.947 89.8333 185.947 92.2957 185.947 95.3333C185.947 98.3708 188.947 100.833 192.649 100.833Z" fill="#1ABCFE" fill-opacity="0.26"/>
<path d="M221.949 100.833C225.65 100.833 228.651 98.3708 228.651 95.3333C228.651 92.2957 225.65 89.8333 221.949 89.8333C218.247 89.8333 215.246 92.2957 215.246 95.3333C215.246 98.3708 218.247 100.833 221.949 100.833Z" fill="#1ABCFE" fill-opacity="0.26"/>
<path d="M251.297 100.833C254.999 100.833 258 98.3708 258 95.3333C258 92.2957 254.999 89.8333 251.297 89.8333C247.595 89.8333 244.595 92.2957 244.595 95.3333C244.595 98.3708 247.595 100.833 251.297 100.833Z" fill="#1ABCFE" fill-opacity="0.26"/>
<path d="M104.703 120.667C108.405 120.667 111.405 118.204 111.405 115.167C111.405 112.129 108.405 109.667 104.703 109.667C101.001 109.667 98 112.129 98 115.167C98 118.204 101.001 120.667 104.703 120.667Z" fill="#1ABCFE" fill-opacity="0.26"/>
<path d="M134.002 120.667C137.704 120.667 140.705 118.204 140.705 115.167C140.705 112.129 137.704 109.667 134.002 109.667C130.3 109.667 127.299 112.129 127.299 115.167C127.299 118.204 130.3 120.667 134.002 120.667Z" fill="#1ABCFE" fill-opacity="0.26"/>
<path d="M163.3 120.667C167.002 120.667 170.002 118.204 170.002 115.167C170.002 112.129 167.002 109.667 163.3 109.667C159.598 109.667 156.597 112.129 156.597 115.167C156.597 118.204 159.598 120.667 163.3 120.667Z" fill="#1ABCFE" fill-opacity="0.26"/>
<path d="M192.649 120.667C196.351 120.667 199.352 118.204 199.352 115.167C199.352 112.129 196.351 109.667 192.649 109.667C188.947 109.667 185.947 112.129 185.947 115.167C185.947 118.204 188.947 120.667 192.649 120.667Z" fill="#1ABCFE" fill-opacity="0.26"/>
<path d="M221.949 120.667C225.65 120.667 228.651 118.204 228.651 115.167C228.651 112.129 225.65 109.667 221.949 109.667C218.247 109.667 215.246 112.129 215.246 115.167C215.246 118.204 218.247 120.667 221.949 120.667Z" fill="#1ABCFE" fill-opacity="0.26"/>
<path d="M251.297 120.667C254.999 120.667 258 118.204 258 115.167C258 112.129 254.999 109.667 251.297 109.667C247.595 109.667 244.595 112.129 244.595 115.167C244.595 118.204 247.595 120.667 251.297 120.667Z" fill="#1ABCFE" fill-opacity="0.26"/>
<path d="M104.703 140.5C108.405 140.5 111.405 138.038 111.405 135C111.405 131.962 108.405 129.5 104.703 129.5C101.001 129.5 98 131.962 98 135C98 138.038 101.001 140.5 104.703 140.5Z" fill="#1ABCFE" fill-opacity="0.26"/>
<path d="M134.002 140.5C137.704 140.5 140.705 138.038 140.705 135C140.705 131.962 137.704 129.5 134.002 129.5C130.3 129.5 127.299 131.962 127.299 135C127.299 138.038 130.3 140.5 134.002 140.5Z" fill="#1ABCFE" fill-opacity="0.26"/>
<path d="M163.3 140.5C167.002 140.5 170.002 138.038 170.002 135C170.002 131.962 167.002 129.5 163.3 129.5C159.598 129.5 156.597 131.962 156.597 135C156.597 138.038 159.598 140.5 163.3 140.5Z" fill="#1ABCFE" fill-opacity="0.26"/>
<path d="M192.649 140.5C196.351 140.5 199.352 138.038 199.352 135C199.352 131.962 196.351 129.5 192.649 129.5C188.947 129.5 185.947 131.962 185.947 135C185.947 138.038 188.947 140.5 192.649 140.5Z" fill="#1ABCFE" fill-opacity="0.26"/>
<path d="M221.949 140.5C225.65 140.5 228.651 138.038 228.651 135C228.651 131.962 225.65 129.5 221.949 129.5C218.247 129.5 215.246 131.962 215.246 135C215.246 138.038 218.247 140.5 221.949 140.5Z" fill="#1ABCFE" fill-opacity="0.26"/>
<path d="M251.297 140.5C254.999 140.5 258 138.038 258 135C258 131.962 254.999 129.5 251.297 129.5C247.595 129.5 244.595 131.962 244.595 135C244.595 138.038 247.595 140.5 251.297 140.5Z" fill="#1ABCFE" fill-opacity="0.26"/>
<path d="M104.703 160.333C108.405 160.333 111.405 157.871 111.405 154.833C111.405 151.796 108.405 149.333 104.703 149.333C101.001 149.333 98 151.796 98 154.833C98 157.871 101.001 160.333 104.703 160.333Z" fill="#1ABCFE" fill-opacity="0.26"/>
<path d="M134.002 160.333C137.704 160.333 140.705 157.871 140.705 154.833C140.705 151.796 137.704 149.333 134.002 149.333C130.3 149.333 127.299 151.796 127.299 154.833C127.299 157.871 130.3 160.333 134.002 160.333Z" fill="#1ABCFE" fill-opacity="0.26"/>
<path d="M163.3 160.333C167.002 160.333 170.002 157.871 170.002 154.833C170.002 151.796 167.002 149.333 163.3 149.333C159.598 149.333 156.597 151.796 156.597 154.833C156.597 157.871 159.598 160.333 163.3 160.333Z" fill="#1ABCFE" fill-opacity="0.26"/>
<path d="M192.649 160.333C196.351 160.333 199.352 157.871 199.352 154.833C199.352 151.796 196.351 149.333 192.649 149.333C188.947 149.333 185.947 151.796 185.947 154.833C185.947 157.871 188.947 160.333 192.649 160.333Z" fill="#1ABCFE" fill-opacity="0.26"/>
<path d="M221.949 160.333C225.65 160.333 228.651 157.871 228.651 154.833C228.651 151.796 225.65 149.333 221.949 149.333C218.247 149.333 215.246 151.796 215.246 154.833C215.246 157.871 218.247 160.333 221.949 160.333Z" fill="#1ABCFE" fill-opacity="0.26"/>
<path d="M251.297 160.333C254.999 160.333 258 157.871 258 154.833C258 151.796 254.999 149.333 251.297 149.333C247.595 149.333 244.595 151.796 244.595 154.833C244.595 157.871 247.595 160.333 251.297 160.333Z" fill="#1ABCFE" fill-opacity="0.26"/>
<path d="M104.703 180.167C108.405 180.167 111.405 177.704 111.405 174.667C111.405 171.629 108.405 169.167 104.703 169.167C101.001 169.167 98 171.629 98 174.667C98 177.704 101.001 180.167 104.703 180.167Z" fill="#1ABCFE" fill-opacity="0.26"/>
<path d="M134.002 180.167C137.704 180.167 140.705 177.704 140.705 174.667C140.705 171.629 137.704 169.167 134.002 169.167C130.3 169.167 127.299 171.629 127.299 174.667C127.299 177.704 130.3 180.167 134.002 180.167Z" fill="#1ABCFE" fill-opacity="0.26"/>
<path d="M163.3 180.167C167.002 180.167 170.002 177.704 170.002 174.667C170.002 171.629 167.002 169.167 163.3 169.167C159.598 169.167 156.597 171.629 156.597 174.667C156.597 177.704 159.598 180.167 163.3 180.167Z" fill="#1ABCFE" fill-opacity="0.26"/>
<path d="M192.649 180.167C196.351 180.167 199.352 177.704 199.352 174.667C199.352 171.629 196.351 169.167 192.649 169.167C188.947 169.167 185.947 171.629 185.947 174.667C185.947 177.704 188.947 180.167 192.649 180.167Z" fill="#1ABCFE" fill-opacity="0.26"/>
<path d="M221.949 180.167C225.65 180.167 228.651 177.704 228.651 174.667C228.651 171.629 225.65 169.167 221.949 169.167C218.247 169.167 215.246 171.629 215.246 174.667C215.246 177.704 218.247 180.167 221.949 180.167Z" fill="#1ABCFE" fill-opacity="0.26"/>
<path d="M251.297 180.167C254.999 180.167 258 177.704 258 174.667C258 171.629 254.999 169.167 251.297 169.167C247.595 169.167 244.595 171.629 244.595 174.667C244.595 177.704 247.595 180.167 251.297 180.167Z" fill="#1ABCFE" fill-opacity="0.26"/>
<path d="M104.703 200C108.405 200 111.405 197.538 111.405 194.5C111.405 191.462 108.405 189 104.703 189C101.001 189 98 191.462 98 194.5C98 197.538 101.001 200 104.703 200Z" fill="#1ABCFE" fill-opacity="0.26"/>
<path d="M134.002 200C137.704 200 140.705 197.538 140.705 194.5C140.705 191.462 137.704 189 134.002 189C130.3 189 127.299 191.462 127.299 194.5C127.299 197.538 130.3 200 134.002 200Z" fill="#1ABCFE" fill-opacity="0.26"/>
<path d="M163.3 200C167.002 200 170.002 197.538 170.002 194.5C170.002 191.462 167.002 189 163.3 189C159.598 189 156.597 191.462 156.597 194.5C156.597 197.538 159.598 200 163.3 200Z" fill="#1ABCFE" fill-opacity="0.26"/>
<path d="M192.649 200C196.351 200 199.352 197.538 199.352 194.5C199.352 191.462 196.351 189 192.649 189C188.947 189 185.947 191.462 185.947 194.5C185.947 197.538 188.947 200 192.649 200Z" fill="#1ABCFE" fill-opacity="0.26"/>
<path d="M221.949 200C225.65 200 228.651 197.538 228.651 194.5C228.651 191.462 225.65 189 221.949 189C218.247 189 215.246 191.462 215.246 194.5C215.246 197.538 218.247 200 221.949 200Z" fill="#1ABCFE" fill-opacity="0.26"/>
<path d="M251.297 200C254.999 200 258 197.538 258 194.5C258 191.462 254.999 189 251.297 189C247.595 189 244.595 191.462 244.595 194.5C244.595 197.538 247.595 200 251.297 200Z" fill="#1ABCFE" fill-opacity="0.26"/>
<path d="M253.353 50.8582L175.011 21.7846L180.296 110.953L96.5262 79.8511L101.822 169.055L18.8429 137.331" stroke="#19223F" stroke-width="28.7888" stroke-miterlimit="10"/>
<path d="M267.446 62.3425L189.104 33.269L194.389 122.437L110.619 91.3355L115.904 180.504L32.9356 148.816" stroke="#1ABCFE" stroke-width="28.7888" stroke-miterlimit="10"/>
</svg>
